<?xml version="1.0" encoding="UTF-8"?><svg id="Layer_1" xmlns="http://www.w3.org/2000/svg" viewBox="0 0 200 200"><defs><style>.cls-1{fill:#f15a24;}.cls-2{fill:#999;}.cls-3{fill:none;stroke:#00a99d;stroke-miterlimit:10;stroke-width:20px;}</style></defs><path class="cls-2" d="M100,.02C44.77,.02,0,44.79,0,100.02s44.77,100,100,100,100-44.77,100-100S155.23,.02,100,.02Zm62.58,136.27c2.77,2.75,5.54,5.51,8.3,8.26-6.7,10.64-15.72,19.66-26.36,26.36-2.69-2.69-5.38-5.38-8.05-8.09-.65-.66-1.11-.79-1.97-.31-4.77,2.69-9.81,4.76-15.09,6.21-.72,.2-.82,.61-.82,1.24,0,3.89,0,7.79,0,11.68-5.98,1.36-12.2,2.1-18.59,2.1s-12.65-.75-18.65-2.11c0-3.78,0-7.57,.03-11.35,0-.99-.27-1.41-1.26-1.68-5.21-1.45-10.18-3.54-14.89-6.21-.63-.36-1-.32-1.52,.21-2.74,2.77-5.51,5.53-8.26,8.29-10.64-6.7-19.66-15.73-26.35-26.37,2.71-2.72,5.43-5.43,8.16-8.13,.59-.58,.69-1,.27-1.75-2.68-4.74-4.77-9.74-6.21-15-.21-.78-.59-1-1.38-1-3.85,.02-7.69,.02-11.54,.02-1.36-6-2.11-12.23-2.11-18.64s.74-12.64,2.11-18.64c3.85,0,7.69,0,11.54,.02,.79,0,1.17-.23,1.38-1,1.47-5.38,3.63-10.48,6.39-15.32,.34-.6,.1-.89-.28-1.27-2.77-2.77-5.54-5.54-8.31-8.3,6.69-10.64,15.71-19.66,26.34-26.36,2.75,2.75,5.5,5.5,8.24,8.26,.5,.51,.86,.6,1.52,.24,4.86-2.73,9.96-4.88,15.34-6.34,.72-.19,.82-.61,.82-1.25,0-3.89,0-7.77,0-11.66,6-1.36,12.23-2.11,18.64-2.11s12.61,.74,18.6,2.1c0,3.82,0,7.64-.03,11.46,0,.91,.25,1.28,1.17,1.54,5.21,1.48,10.19,3.53,14.9,6.21,.64,.37,1.05,.37,1.61-.19,2.74-2.78,5.5-5.53,8.26-8.29,10.64,6.7,19.67,15.72,26.37,26.36-2.71,2.7-5.41,5.4-8.14,8.09-.63,.62-.78,1.06-.3,1.89,2.66,4.68,4.71,9.63,6.15,14.81,.23,.83,.56,1.14,1.47,1.13,3.85-.03,7.7-.03,11.55-.03,1.36,6,2.11,12.23,2.11,18.64s-.74,12.64-2.11,18.64c-3.89,0-7.78,0-11.67-.02-.76,0-1.08,.21-1.29,.96-1.48,5.31-3.59,10.36-6.3,15.16-.37,.65-.28,1.03,.23,1.53Z"/><rect class="cls-3" x="64.99" y="75.05" width="70.01" height="59.02" rx="8.05" ry="8.05"/><path class="cls-1" d="M100,37.37l-17.87,23.97h10.26v47.3c0,2.27,2.37,4.1,5.3,4.1h4.62c2.92,0,5.3-1.84,5.3-4.1V61.33h10.26l-17.87-23.97Z"/></svg>